<svg xmlns="http://www.w3.org/2000/svg" viewBox="0 0 200 200" width="100" height="100">
  <!-- Background gradient -->
  <defs>
    <linearGradient id="bgGradient" x1="0%" y1="0%" x2="100%" y2="100%">
      <stop offset="0%" stop-color="#F59E0B" stop-opacity="0.2" />
      <stop offset="100%" stop-color="#EF4444" stop-opacity="0.2" />
    </linearGradient>
    <linearGradient id="iconGradient" x1="0%" y1="0%" x2="100%" y2="100%">
      <stop offset="0%" stop-color="#F59E0B" />
      <stop offset="100%" stop-color="#EF4444" />
    </linearGradient>
    <filter id="shadow" x="-20%" y="-20%" width="140%" height="140%">
      <feDropShadow dx="2" dy="2" stdDeviation="3" flood-color="#000" flood-opacity="0.3" />
    </filter>
    <filter id="glow" x="-50%" y="-50%" width="200%" height="200%">
      <feGaussianBlur stdDeviation="1" result="blur" />
      <feComposite in="SourceGraphic" in2="blur" operator="over" />
    </filter>
    <pattern id="grid" width="10" height="10" patternUnits="userSpaceOnUse">
      <path d="M 10 0 L 0 0 0 10" fill="none" stroke="#F59E0B" stroke-width="0.5" stroke-opacity="0.3" />
    </pattern>
  </defs>
  
  <!-- Background circle -->
  <circle cx="100" cy="100" r="90" fill="url(#bgGradient)" />
  
  <!-- Computer Vision elements -->
  <g filter="url(#shadow)">
    <!-- Camera/eye representation -->
    <circle cx="100" cy="100" r="35" fill="white" stroke="url(#iconGradient)" stroke-width="3" />
    <circle cx="100" cy="100" r="15" fill="url(#iconGradient)" opacity="0.7" />
    <circle cx="100" cy="100" r="5" fill="white" />
    
    <!-- Iris detail -->
    <circle cx="100" cy="100" r="25" fill="none" stroke="url(#iconGradient)" stroke-width="1" stroke-dasharray="2,3" />
    
    <!-- Light reflection -->
    <circle cx="93" cy="93" r="3" fill="white" opacity="0.8" />
    
    <!-- Object detection boxes -->
    <g filter="url(#glow)">
      <!-- Person detection -->
      <rect x="50" y="60" width="20" height="30" rx="2" fill="none" stroke="url(#iconGradient)" stroke-width="1.5" />
      <text x="52" y="58" font-family="Arial" font-size="6" fill="url(#iconGradient)">Person</text>
      
      <!-- Car detection -->
      <rect x="130" y="70" width="30" height="20" rx="2" fill="none" stroke="url(#iconGradient)" stroke-width="1.5" />
      <text x="135" y="68" font-family="Arial" font-size="6" fill="url(#iconGradient)">Car</text>
      
      <!-- Building detection -->
      <rect x="75" y="130" width="25" height="35" rx="2" fill="none" stroke="url(#iconGradient)" stroke-width="1.5" />
      <text x="75" y="128" font-family="Arial" font-size="6" fill="url(#iconGradient)">Building</text>
    </g>
    
    <!-- Analysis grid overlay -->
    <rect x="40" y="40" width="120" height="120" fill="url(#grid)" opacity="0.5" />
    
    <!-- Data points/feature detection -->
    <circle cx="60" cy="75" r="2" fill="url(#iconGradient)" />
    <circle cx="145" cy="80" r="2" fill="url(#iconGradient)" />
    <circle cx="87" cy="147" r="2" fill="url(#iconGradient)" />
    <circle cx="70" cy="65" r="2" fill="url(#iconGradient)" />
    <circle cx="155" cy="85" r="2" fill="url(#iconGradient)" />
    <circle cx="90" cy="160" r="2" fill="url(#iconGradient)" />
    
    <!-- Scanning lines -->
    <line x1="40" y1="100" x2="160" y2="100" stroke="url(#iconGradient)" stroke-width="1" stroke-dasharray="5,5" opacity="0.7" />
    <line x1="100" y1="40" x2="100" y2="160" stroke="url(#iconGradient)" stroke-width="1" stroke-dasharray="5,5" opacity="0.7" />
  </g>
</svg>