<svg xmlns="http://www.w3.org/2000/svg" viewBox="0 0 200 200" width="100" height="100">
  <!-- Background gradient -->
  <defs>
    <linearGradient id="bgGradient" x1="0%" y1="0%" x2="100%" y2="100%">
      <stop offset="0%" stop-color="#0EA5E9" stop-opacity="0.2" />
      <stop offset="100%" stop-color="#14B8A6" stop-opacity="0.2" />
    </linearGradient>
    <linearGradient id="iconGradient" x1="0%" y1="0%" x2="100%" y2="100%">
      <stop offset="0%" stop-color="#0EA5E9" />
      <stop offset="100%" stop-color="#14B8A6" />
    </linearGradient>
    <filter id="shadow" x="-20%" y="-20%" width="140%" height="140%">
      <feDropShadow dx="2" dy="2" stdDeviation="3" flood-color="#000" flood-opacity="0.3" />
    </filter>
    <filter id="glow" x="-50%" y="-50%" width="200%" height="200%">
      <feGaussianBlur stdDeviation="1" result="blur" />
      <feComposite in="SourceGraphic" in2="blur" operator="over" />
    </filter>
  </defs>
  
  <!-- Background circle -->
  <circle cx="100" cy="100" r="90" fill="url(#bgGradient)" />
  
  <!-- ContextClue elements -->
  <g filter="url(#shadow)">
    <!-- Knowledge base representation -->
    <rect x="50" y="60" width="100" height="80" rx="5" fill="white" stroke="url(#iconGradient)" stroke-width="2" />
    
    <!-- Document/content elements -->
    <rect x="60" y="70" width="35" height="25" rx="2" fill="#f8fafc" stroke="url(#iconGradient)" stroke-width="1" />
    <line x1="65" y1="75" x2="90" y2="75" stroke="url(#iconGradient)" stroke-width="1" />
    <line x1="65" y1="80" x2="85" y2="80" stroke="url(#iconGradient)" stroke-width="1" />
    <line x1="65" y1="85" x2="90" y2="85" stroke="url(#iconGradient)" stroke-width="1" />
    <line x1="65" y1="90" x2="80" y2="90" stroke="url(#iconGradient)" stroke-width="1" />
    
    <rect x="105" y="70" width="35" height="25" rx="2" fill="#f8fafc" stroke="url(#iconGradient)" stroke-width="1" />
    <line x1="110" y1="75" x2="135" y2="75" stroke="url(#iconGradient)" stroke-width="1" />
    <line x1="110" y1="80" x2="130" y2="80" stroke="url(#iconGradient)" stroke-width="1" />
    <line x1="110" y1="85" x2="135" y2="85" stroke="url(#iconGradient)" stroke-width="1" />
    <line x1="110" y1="90" x2="125" y2="90" stroke="url(#iconGradient)" stroke-width="1" />
    
    <rect x="60" y="105" width="35" height="25" rx="2" fill="#f8fafc" stroke="url(#iconGradient)" stroke-width="1" />
    <line x1="65" y1="110" x2="90" y2="110" stroke="url(#iconGradient)" stroke-width="1" />
    <line x1="65" y1="115" x2="85" y2="115" stroke="url(#iconGradient)" stroke-width="1" />
    <line x1="65" y1="120" x2="90" y2="120" stroke="url(#iconGradient)" stroke-width="1" />
    <line x1="65" y1="125" x2="80" y2="125" stroke="url(#iconGradient)" stroke-width="1" />
    
    <!-- Magnifying glass (search) -->
    <g transform="translate(125, 115) scale(0.8)" filter="url(#glow)">
      <circle cx="0" cy="0" r="12" fill="none" stroke="url(#iconGradient)" stroke-width="3" />
      <line x1="9" y1="9" x2="18" y2="18" stroke="url(#iconGradient)" stroke-width="3" stroke-linecap="round" />
    </g>
    
    <!-- Connection lines representing semantic relationships -->
    <path d="M77,95 C85,100 95,100 105,95" fill="none" stroke="url(#iconGradient)" stroke-width="1" stroke-dasharray="2,2" />
    <path d="M77,105 C85,100 95,100 105,105" fill="none" stroke="url(#iconGradient)" stroke-width="1" stroke-dasharray="2,2" />
    <path d="M95,82 C100,90 100,100 95,105" fill="none" stroke="url(#iconGradient)" stroke-width="1" stroke-dasharray="2,2" />
    
    <!-- AI assistant element -->
    <g transform="translate(100, 45)">
      <circle cx="0" cy="0" r="15" fill="white" stroke="url(#iconGradient)" stroke-width="2" />
      <path d="M-5,-5 C-5,-8 5,-8 5,-5 C5,0 0,8 0,8" fill="none" stroke="url(#iconGradient)" stroke-width="2" stroke-linecap="round" />
      <circle cx="0" cy="12" r="1" fill="url(#iconGradient)" />
    </g>
    
    <!-- Connection from AI to knowledge base -->
    <path d="M100,60 L100,70" stroke="url(#iconGradient)" stroke-width="2" stroke-dasharray="3,3" />
  </g>
</svg>