<svg xmlns="http://www.w3.org/2000/svg" viewBox="0 0 200 200" width="100" height="100">
  <!-- Background gradient -->
  <defs>
    <linearGradient id="bgGradient" x1="0%" y1="0%" x2="100%" y2="100%">
      <stop offset="0%" stop-color="#059669" stop-opacity="0.2" />
      <stop offset="100%" stop-color="#0369A1" stop-opacity="0.2" />
    </linearGradient>
    <linearGradient id="iconGradient" x1="0%" y1="0%" x2="100%" y2="100%">
      <stop offset="0%" stop-color="#059669" />
      <stop offset="100%" stop-color="#0369A1" />
    </linearGradient>
    <filter id="shadow" x="-20%" y="-20%" width="140%" height="140%">
      <feDropShadow dx="2" dy="2" stdDeviation="3" flood-color="#000" flood-opacity="0.3" />
    </filter>
    <filter id="glow" x="-50%" y="-50%" width="200%" height="200%">
      <feGaussianBlur stdDeviation="1" result="blur" />
      <feComposite in="SourceGraphic" in2="blur" operator="over" />
    </filter>
  </defs>
  
  <!-- Background circle -->
  <circle cx="100" cy="100" r="90" fill="url(#bgGradient)" />
  
  <!-- MLOps Continuous Integration/Deployment Cycle -->
  <g filter="url(#shadow)">
    <!-- Circular pipeline representing CI/CD -->
    <circle cx="100" cy="100" r="60" fill="none" stroke="url(#iconGradient)" stroke-width="3" stroke-dasharray="5,3" />
    
    <!-- Development stage -->
    <g transform="translate(100, 40)" filter="url(#glow)">
      <circle cx="0" cy="0" r="15" fill="white" stroke="url(#iconGradient)" stroke-width="2" />
      <text x="-7" y="4" font-family="monospace" font-size="12" fill="url(#iconGradient)">&lt;/&gt;</text>
    </g>
    
    <!-- Testing stage -->
    <g transform="translate(160, 100)" filter="url(#glow)">
      <circle cx="0" cy="0" r="15" fill="white" stroke="url(#iconGradient)" stroke-width="2" />
      <text x="-5" y="5" font-family="Arial" font-size="15" fill="url(#iconGradient)">✓</text>
    </g>
    
    <!-- Deployment stage -->
    <g transform="translate(100, 160)" filter="url(#glow)">
      <circle cx="0" cy="0" r="15" fill="white" stroke="url(#iconGradient)" stroke-width="2" />
      <path d="M-7,-3 L0,-10 L7,-3 L7,7 L-7,7 Z" fill="none" stroke="url(#iconGradient)" stroke-width="1.5" />
    </g>
    
    <!-- Monitoring stage -->
    <g transform="translate(40, 100)" filter="url(#glow)">
      <circle cx="0" cy="0" r="15" fill="white" stroke="url(#iconGradient)" stroke-width="2" />
      <path d="M-7,5 L-2,-5 L3,0 L7,-5" fill="none" stroke="url(#iconGradient)" stroke-width="1.5" />
    </g>
    
    <!-- Central ML model -->
    <g transform="translate(100, 100)">
      <circle cx="0" cy="0" r="20" fill="white" stroke="url(#iconGradient)" stroke-width="2" />
      <path d="M-10,-5 C-5,-15 5,-15 10,-5 C15,0 15,10 10,15 C0,20 -10,15 -10,5 Z" fill="none" stroke="url(#iconGradient)" stroke-width="1.5" />
      <circle cx="-5" cy="-5" r="2" fill="url(#iconGradient)" />
      <circle cx="5" cy="-5" r="2" fill="url(#iconGradient)" />
      <path d="M-5,5 C-3,8 3,8 5,5" fill="none" stroke="url(#iconGradient)" stroke-width="1.5" />
    </g>
    
    <!-- Connection arrows -->
    <path d="M115,55 L145,85" fill="none" stroke="url(#iconGradient)" stroke-width="2" stroke-linecap="round" marker-end="url(#arrow)" />
    <path d="M145,115 L115,145" fill="none" stroke="url(#iconGradient)" stroke-width="2" stroke-linecap="round" marker-end="url(#arrow)" />
    <path d="M85,145 L55,115" fill="none" stroke="url(#iconGradient)" stroke-width="2" stroke-linecap="round" marker-end="url(#arrow)" />
    <path d="M55,85 L85,55" fill="none" stroke="url(#iconGradient)" stroke-width="2" stroke-linecap="round" marker-end="url(#arrow)" />
    
    <!-- Data flow indicators -->
    <circle cx="130" cy="70" r="3" fill="url(#iconGradient)" />
    <circle cx="130" cy="130" r="3" fill="url(#iconGradient)" />
    <circle cx="70" cy="130" r="3" fill="url(#iconGradient)" />
    <circle cx="70" cy="70" r="3" fill="url(#iconGradient)" />
  </g>
</svg>