<svg xmlns="http://www.w3.org/2000/svg" viewBox="0 0 200 200" width="100" height="100">
  <!-- Background gradient -->
  <defs>
    <linearGradient id="bgGradient" x1="0%" y1="0%" x2="100%" y2="100%">
      <stop offset="0%" stop-color="#8B5CF6" stop-opacity="0.2" />
      <stop offset="100%" stop-color="#EC4899" stop-opacity="0.2" />
    </linearGradient>
    <linearGradient id="iconGradient" x1="0%" y1="0%" x2="100%" y2="100%">
      <stop offset="0%" stop-color="#8B5CF6" />
      <stop offset="100%" stop-color="#EC4899" />
    </linearGradient>
    <filter id="shadow" x="-20%" y="-20%" width="140%" height="140%">
      <feDropShadow dx="2" dy="2" stdDeviation="3" flood-color="#000" flood-opacity="0.3" />
    </filter>
    <filter id="glow" x="-50%" y="-50%" width="200%" height="200%">
      <feGaussianBlur stdDeviation="1" result="blur" />
      <feComposite in="SourceGraphic" in2="blur" operator="over" />
    </filter>
  </defs>
  
  <!-- Background circle -->
  <circle cx="100" cy="100" r="90" fill="url(#bgGradient)" />
  
  <!-- AI Assistance Bot elements -->
  <g filter="url(#shadow)">
    <!-- Airport terminal stylized -->
    <path d="M30,140 L170,140 L170,100 L130,80 L70,80 L30,100 Z" fill="white" stroke="url(#iconGradient)" stroke-width="2" />
    <line x1="70" y1="80" x2="70" y2="140" stroke="url(#iconGradient)" stroke-width="1" />
    <line x1="130" y1="80" x2="130" y2="140" stroke="url(#iconGradient)" stroke-width="1" />
    <path d="M90,140 L90,110 L110,110 L110,140" fill="none" stroke="url(#iconGradient)" stroke-width="2" />
    
    <!-- Robot assistant -->
    <g transform="translate(100, 70)" filter="url(#glow)">
      <!-- Robot head -->
      <rect x="-15" y="-15" width="30" height="30" rx="5" fill="white" stroke="url(#iconGradient)" stroke-width="2" />
      
      <!-- Robot eyes -->
      <circle cx="-7" cy="-5" r="3" fill="url(#iconGradient)" />
      <circle cx="7" cy="-5" r="3" fill="url(#iconGradient)" />
      
      <!-- Robot mouth -->
      <path d="M-7,8 L7,8" stroke="url(#iconGradient)" stroke-width="1.5" stroke-linecap="round" />
      
      <!-- Robot body -->
      <rect x="-12" y="15" width="24" height="20" rx="3" fill="white" stroke="url(#iconGradient)" stroke-width="2" />
      
      <!-- Robot arms -->
      <path d="M-12,20 L-20,15 L-25,25" fill="none" stroke="url(#iconGradient)" stroke-width="1.5" stroke-linecap="round" />
      <path d="M12,20 L20,15 L25,25" fill="none" stroke="url(#iconGradient)" stroke-width="1.5" stroke-linecap="round" />
      
      <!-- Robot legs -->
      <path d="M-8,35 L-8,45" fill="none" stroke="url(#iconGradient)" stroke-width="2" stroke-linecap="round" />
      <path d="M8,35 L8,45" fill="none" stroke="url(#iconGradient)" stroke-width="2" stroke-linecap="round" />
      
      <!-- Robot antenna -->
      <line x1="0" y1="-15" x2="0" y2="-20" stroke="url(#iconGradient)" stroke-width="1.5" />
      <circle cx="0" cy="-22" r="2" fill="url(#iconGradient)" />
    </g>
    
    <!-- Passenger elements -->
    <g transform="translate(50, 120)">
      <circle cx="0" cy="-10" r="8" fill="white" stroke="url(#iconGradient)" stroke-width="1.5" />
      <path d="M0,-2 L0,15" fill="none" stroke="url(#iconGradient)" stroke-width="1.5" />
      <path d="M0,5 L-10,0" fill="none" stroke="url(#iconGradient)" stroke-width="1.5" />
      <path d="M0,5 L10,0" fill="none" stroke="url(#iconGradient)" stroke-width="1.5" />
      <path d="M0,15 L-5,25" fill="none" stroke="url(#iconGradient)" stroke-width="1.5" />
      <path d="M0,15 L5,25" fill="none" stroke="url(#iconGradient)" stroke-width="1.5" />
    </g>
    
    <g transform="translate(150, 120)">
      <circle cx="0" cy="-10" r="8" fill="white" stroke="url(#iconGradient)" stroke-width="1.5" />
      <path d="M0,-2 L0,15" fill="none" stroke="url(#iconGradient)" stroke-width="1.5" />
      <path d="M0,5 L-10,0" fill="none" stroke="url(#iconGradient)" stroke-width="1.5" />
      <path d="M0,5 L10,0" fill="none" stroke="url(#iconGradient)" stroke-width="1.5" />
      <path d="M0,15 L-5,25" fill="none" stroke="url(#iconGradient)" stroke-width="1.5" />
      <path d="M0,15 L5,25" fill="none" stroke="url(#iconGradient)" stroke-width="1.5" />
    </g>
    
    <!-- Communication elements -->
    <path d="M65,90 C75,80 85,80 95,90" fill="none" stroke="url(#iconGradient)" stroke-width="1.5" stroke-dasharray="2,2" />
    <path d="M105,90 C115,80 125,80 135,90" fill="none" stroke="url(#iconGradient)" stroke-width="1.5" stroke-dasharray="2,2" />
    
    <!-- Airport elements -->
    <path d="M40,140 L40,150 L160,150 L160,140" fill="none" stroke="url(#iconGradient)" stroke-width="1" />
    <rect x="45" y="90" width="10" height="20" fill="white" stroke="url(#iconGradient)" stroke-width="1" />
    <rect x="145" y="90" width="10" height="20" fill="white" stroke="url(#iconGradient)" stroke-width="1" />
  </g>
</svg>