<svg xmlns="http://www.w3.org/2000/svg" viewBox="0 0 200 200" width="100" height="100">
  <!-- Background gradient -->
  <defs>
    <linearGradient id="bgGradient" x1="0%" y1="0%" x2="100%" y2="100%">
      <stop offset="0%" stop-color="#F59E0B" stop-opacity="0.2" />
      <stop offset="100%" stop-color="#EF4444" stop-opacity="0.2" />
    </linearGradient>
    <linearGradient id="iconGradient" x1="0%" y1="0%" x2="100%" y2="100%">
      <stop offset="0%" stop-color="#F59E0B" />
      <stop offset="100%" stop-color="#EF4444" />
    </linearGradient>
    <filter id="shadow" x="-20%" y="-20%" width="140%" height="140%">
      <feDropShadow dx="2" dy="2" stdDeviation="3" flood-color="#000" flood-opacity="0.3" />
    </filter>
    <filter id="glow" x="-50%" y="-50%" width="200%" height="200%">
      <feGaussianBlur stdDeviation="1" result="blur" />
      <feComposite in="SourceGraphic" in2="blur" operator="over" />
    </filter>
  </defs>
  
  <!-- Background circle -->
  <circle cx="100" cy="100" r="90" fill="url(#bgGradient)" />
  
  <!-- Demand Forecasting elements -->
  <g filter="url(#shadow)">
    <!-- Graph/chart background -->
    <rect x="40" y="60" width="120" height="80" rx="3" fill="white" stroke="url(#iconGradient)" stroke-width="2" />
    
    <!-- Graph grid lines -->
    <line x1="40" y1="80" x2="160" y2="80" stroke="url(#iconGradient)" stroke-width="0.5" stroke-opacity="0.5" />
    <line x1="40" y1="100" x2="160" y2="100" stroke="url(#iconGradient)" stroke-width="0.5" stroke-opacity="0.5" />
    <line x1="40" y1="120" x2="160" y2="120" stroke="url(#iconGradient)" stroke-width="0.5" stroke-opacity="0.5" />
    <line x1="60" y1="60" x2="60" y2="140" stroke="url(#iconGradient)" stroke-width="0.5" stroke-opacity="0.5" />
    <line x1="80" y1="60" x2="80" y2="140" stroke="url(#iconGradient)" stroke-width="0.5" stroke-opacity="0.5" />
    <line x1="100" y1="60" x2="100" y2="140" stroke="url(#iconGradient)" stroke-width="0.5" stroke-opacity="0.5" />
    <line x1="120" y1="60" x2="120" y2="140" stroke="url(#iconGradient)" stroke-width="0.5" stroke-opacity="0.5" />
    <line x1="140" y1="60" x2="140" y2="140" stroke="url(#iconGradient)" stroke-width="0.5" stroke-opacity="0.5" />
    
    <!-- Forecast line -->
    <path d="M40,110 L60,100 L80,105 L100,90 L120,80 L140,85 L160,70" fill="none" stroke="url(#iconGradient)" stroke-width="2" stroke-linecap="round" />
    
    <!-- Forecast data points -->
    <circle cx="40" cy="110" r="3" fill="white" stroke="url(#iconGradient)" stroke-width="1.5" />
    <circle cx="60" cy="100" r="3" fill="white" stroke="url(#iconGradient)" stroke-width="1.5" />
    <circle cx="80" cy="105" r="3" fill="white" stroke="url(#iconGradient)" stroke-width="1.5" />
    <circle cx="100" cy="90" r="3" fill="white" stroke="url(#iconGradient)" stroke-width="1.5" />
    <circle cx="120" cy="80" r="3" fill="white" stroke="url(#iconGradient)" stroke-width="1.5" />
    <circle cx="140" cy="85" r="3" fill="white" stroke="url(#iconGradient)" stroke-width="1.5" />
    <circle cx="160" cy="70" r="3" fill="white" stroke="url(#iconGradient)" stroke-width="1.5" />
    
    <!-- Trend prediction -->
    <path d="M160,70 L180,65" fill="none" stroke="url(#iconGradient)" stroke-width="2" stroke-linecap="round" stroke-dasharray="3,3" />
    
    <!-- Parcel delivery elements -->
    <g filter="url(#glow)">
      <!-- Delivery truck -->
      <g transform="translate(50, 40)">
        <rect x="-15" y="-10" width="30" height="15" rx="2" fill="white" stroke="url(#iconGradient)" stroke-width="1.5" />
        <rect x="-20" y="-5" width="5" height="10" rx="1" fill="white" stroke="url(#iconGradient)" stroke-width="1" />
        <circle cx="-10" cy="5" r="3" fill="white" stroke="url(#iconGradient)" stroke-width="1" />
        <circle cx="10" cy="5" r="3" fill="white" stroke="url(#iconGradient)" stroke-width="1" />
      </g>
      
      <!-- Parcel box -->
      <g transform="translate(150, 40)">
        <rect x="-10" y="-10" width="20" height="15" rx="2" fill="white" stroke="url(#iconGradient)" stroke-width="1.5" />
        <line x1="-10" y1="-5" x2="10" y2="-5" stroke="url(#iconGradient)" stroke-width="1" />
        <line x1="0" y1="-10" x2="0" y2="5" stroke="url(#iconGradient)" stroke-width="1" />
      </g>
      
      <!-- Calendar/schedule -->
      <g transform="translate(100, 160)">
        <rect x="-15" y="-15" width="30" height="30" rx="2" fill="white" stroke="url(#iconGradient)" stroke-width="1.5" />
        <line x1="-15" y1="-8" x2="15" y2="-8" stroke="url(#iconGradient)" stroke-width="1" />
        <line x1="-8" y1="-15" x2="-8" y2="15" stroke="url(#iconGradient)" stroke-width="1" />
        <line x1="0" y1="-15" x2="0" y2="15" stroke="url(#iconGradient)" stroke-width="1" />
        <line x1="8" y1="-15" x2="8" y2="15" stroke="url(#iconGradient)" stroke-width="1" />
        <line x1="-15" y1="0" x2="15" y2="0" stroke="url(#iconGradient)" stroke-width="1" />
        <line x1="-15" y1="8" x2="15" y2="8" stroke="url(#iconGradient)" stroke-width="1" />
      </g>
    </g>
    
    <!-- AI/ML element -->
    <g transform="translate(170, 100)">
      <circle cx="0" cy="0" r="15" fill="white" stroke="url(#iconGradient)" stroke-width="2" />
      <path d="M-5,-5 C-5,-8 5,-8 5,-5 C5,0 0,8 0,8" fill="none" stroke="url(#iconGradient)" stroke-width="1.5" stroke-linecap="round" />
      <circle cx="0" cy="10" r="1" fill="url(#iconGradient)" />
    </g>
    
    <!-- Connection lines -->
    <line x1="150" y1="40" x2="160" y2="70" stroke="url(#iconGradient)" stroke-width="1" stroke-dasharray="2,2" />
    <line x1="100" y1="145" x2="100" y2="140" stroke="url(#iconGradient)" stroke-width="1" stroke-dasharray="2,2" />
    <line x1="50" y1="40" x2="60" y2="100" stroke="url(#iconGradient)" stroke-width="1" stroke-dasharray="2,2" />
  </g>
</svg>