<svg width="400" height="200" viewBox="0 0 400 200" xmlns="http://www.w3.org/2000/svg">
  <defs>
    <linearGradient id="bg" x1="0%" y1="0%" x2="100%" y2="100%">
      <stop offset="0%" style="stop-color:#667eea;stop-opacity:1" />
      <stop offset="100%" style="stop-color:#764ba2;stop-opacity:1" />
    </linearGradient>
  </defs>
  
  <!-- Background -->
  <rect width="400" height="200" fill="url(#bg)"/>
  
  <!-- Document icon -->
  <g transform="translate(50, 40)">
    <rect x="0" y="0" width="80" height="100" rx="4" fill="white" opacity="0.9"/>
    <rect x="10" y="15" width="60" height="3" fill="#667eea"/>
    <rect x="10" y="25" width="50" height="2" fill="#667eea" opacity="0.7"/>
    <rect x="10" y="32" width="55" height="2" fill="#667eea" opacity="0.7"/>
    <rect x="10" y="39" width="45" height="2" fill="#667eea" opacity="0.7"/>
    <rect x="10" y="50" width="60" height="3" fill="#667eea"/>
    <rect x="10" y="60" width="40" height="2" fill="#667eea" opacity="0.7"/>
    <rect x="10" y="67" width="50" height="2" fill="#667eea" opacity="0.7"/>
  </g>
  
  <!-- AI Brain icon -->
  <g transform="translate(180, 50)">
    <circle cx="40" cy="40" r="35" fill="white" opacity="0.2"/>
    <circle cx="40" cy="40" r="25" fill="white" opacity="0.3"/>
    <circle cx="30" cy="35" r="3" fill="white"/>
    <circle cx="50" cy="35" r="3" fill="white"/>
    <path d="M 25 50 Q 40 60 55 50" stroke="white" stroke-width="2" fill="none"/>
    
    <!-- Neural network lines -->
    <line x1="20" y1="30" x2="35" y2="40" stroke="white" stroke-width="1" opacity="0.6"/>
    <line x1="60" y1="30" x2="45" y2="40" stroke="white" stroke-width="1" opacity="0.6"/>
    <line x1="25" y1="55" x2="40" y2="45" stroke="white" stroke-width="1" opacity="0.6"/>
    <line x1="55" y1="55" x2="40" y2="45" stroke="white" stroke-width="1" opacity="0.6"/>
  </g>
  
  <!-- Text -->
  <text x="280" y="80" fill="white" font-family="Arial, sans-serif" font-size="18" font-weight="bold">AI Strategy</text>
  <text x="280" y="100" fill="white" font-family="Arial, sans-serif" font-size="14" opacity="0.9">Enterprise Guide</text>
  <text x="280" y="130" fill="white" font-family="Arial, sans-serif" font-size="12" opacity="0.8">Comprehensive AI</text>
  <text x="280" y="145" fill="white" font-family="Arial, sans-serif" font-size="12" opacity="0.8">Implementation</text>
</svg>