<svg width="800" height="400" viewBox="0 0 800 400" xmlns="http://www.w3.org/2000/svg">
  <!-- Background -->
  <rect width="800" height="400" fill="#f8fafc"/>
  
  <!-- Header -->
  <rect x="0" y="0" width="800" height="60" fill="#1e40af"/>
  <text x="40" y="40" font-family="Arial, sans-serif" font-size="20" font-weight="bold" fill="white">E-commerce Analytics Dashboard</text>
  
  <!-- Main Content Area -->
  <rect x="40" y="80" width="720" height="280" rx="12" fill="white" stroke="#e5e7eb" stroke-width="2"/>
  
  <!-- Revenue Chart -->
  <rect x="60" y="100" width="300" height="180" rx="8" fill="#f8fafc" stroke="#e5e7eb" stroke-width="1"/>
  <text x="210" y="125" font-family="Arial, sans-serif" font-size="14" font-weight="bold" fill="#374151" text-anchor="middle">Revenue Growth</text>
  
  <!-- Line Chart -->
  <polyline points="80,250 120,220 160,180 200,160 240,140 280,120 320,100 340,90" 
            stroke="#10b981" stroke-width="4" fill="none"/>
  
  <!-- Data Points -->
  <circle cx="120" cy="220" r="4" fill="#10b981"/>
  <circle cx="200" cy="160" r="4" fill="#10b981"/>
  <circle cx="280" cy="120" r="4" fill="#10b981"/>
  <circle cx="340" cy="90" r="4" fill="#10b981"/>
  
  <!-- KPI Cards -->
  <rect x="380" y="100" width="120" height="60" rx="8" fill="#ecfdf5" stroke="#10b981" stroke-width="1"/>
  <text x="440" y="120" font-family="Arial, sans-serif" font-size="12" font-weight="bold" fill="#065f46" text-anchor="middle">Total Revenue</text>
  <text x="440" y="145" font-family="Arial, sans-serif" font-size="18" font-weight="bold" fill="#047857" text-anchor="middle">$2.4M</text>
  
  <rect x="520" y="100" width="120" height="60" rx="8" fill="#fef3c7" stroke="#f59e0b" stroke-width="1"/>
  <text x="580" y="120" font-family="Arial, sans-serif" font-size="12" font-weight="bold" fill="#92400e" text-anchor="middle">Conversion Rate</text>
  <text x="580" y="145" font-family="Arial, sans-serif" font-size="18" font-weight="bold" fill="#d97706" text-anchor="middle">12.8%</text>
  
  <rect x="660" y="100" width="120" height="60" rx="8" fill="#dbeafe" stroke="#3b82f6" stroke-width="1"/>
  <text x="720" y="120" font-family="Arial, sans-serif" font-size="12" font-weight="bold" fill="#1e40af" text-anchor="middle">Active Users</text>
  <text x="720" y="145" font-family="Arial, sans-serif" font-size="18" font-weight="bold" fill="#1d4ed8" text-anchor="middle">45.2K</text>
  
  <!-- Product Performance -->
  <rect x="380" y="180" width="360" height="100" rx="8" fill="#f8fafc" stroke="#e5e7eb" stroke-width="1"/>
  <text x="560" y="200" font-family="Arial, sans-serif" font-size="14" font-weight="bold" fill="#374151" text-anchor="middle">Top Products</text>
  
  <!-- Product Bars -->
  <rect x="400" y="210" width="80" height="15" fill="#3b82f6"/>
  <text x="390" y="222" font-family="Arial, sans-serif" font-size="10" fill="#374151" text-anchor="end">Product A</text>
  <text x="490" y="222" font-family="Arial, sans-serif" font-size="10" fill="#374151">$450K</text>
  
  <rect x="400" y="235" width="65" height="15" fill="#10b981"/>
  <text x="390" y="247" font-family="Arial, sans-serif" font-size="10" fill="#374151" text-anchor="end">Product B</text>
  <text x="475" y="247" font-family="Arial, sans-serif" font-size="10" fill="#374151">$380K</text>
  
  <rect x="400" y="260" width="50" height="15" fill="#f59e0b"/>
  <text x="390" y="272" font-family="Arial, sans-serif" font-size="10" fill="#374151" text-anchor="end">Product C</text>
  <text x="460" y="272" font-family="Arial, sans-serif" font-size="10" fill="#374151">$290K</text>
  
  <!-- Customer Segments -->
  <rect x="580" y="210" width="140" height="60" rx="6" fill="#ede9fe" stroke="#8b5cf6" stroke-width="1"/>
  <text x="650" y="230" font-family="Arial, sans-serif" font-size="12" font-weight="bold" fill="#5b21b6" text-anchor="middle">Customer Segments</text>
  <text x="650" y="250" font-family="Arial, sans-serif" font-size="10" fill="#7c3aed" text-anchor="middle">Premium: 35%</text>
  <text x="650" y="265" font-family="Arial, sans-serif" font-size="10" fill="#7c3aed" text-anchor="middle">Standard: 65%</text>
  
  <!-- Footer Stats -->
  <text x="60" y="390" font-family="Arial, sans-serif" font-size="12" fill="#6b7280">Last updated: 2 minutes ago</text>
  <text x="400" y="390" font-family="Arial, sans-serif" font-size="12" fill="#6b7280">Data processed: 2.3M transactions</text>
  <text x="650" y="390" font-family="Arial, sans-serif" font-size="12" fill="#6b7280">Response time: 0.2s</text>
</svg>