<svg xmlns="http://www.w3.org/2000/svg" viewBox="0 0 603 182" width="603" height="182">
  <defs>
    <style>
      .amazon-text { fill: #232f3e; }
      .amazon-smile { fill: #ff9900; }
    </style>
  </defs>
  <g>
    <path class="amazon-text" d="M374 144.7c-3.8 2.8-9.3 4.1-14.1 4.1-6.6 0-11.7-2.4-15.2-7.3-3.5-4.9-5.3-11.4-5.3-19.6 0-8.4 1.8-15.1 5.4-20.1 3.6-5 8.8-7.5 15.6-7.5 5.6 0 10.1 1.9 13.6 5.6v-4.8h7.8v48.9c0 7.3-1.9 12.8-5.6 16.6-3.7 3.8-9.1 5.7-16.2 5.7-3.4 0-6.7-.4-9.8-1.3-3.1-.9-5.8-2.1-8.1-3.7l2.8-6.1c2 1.4 4.3 2.4 6.9 3.1 2.6.7 5.2 1 7.8 1 4.8 0 8.4-1.2 10.8-3.7 2.4-2.5 3.6-6.2 3.6-11.1v-1.8zm-13.4-5.1c4.2 0 7.6-1.4 10.2-4.1 2.6-2.7 3.9-6.4 3.9-11.1s-1.3-8.4-3.9-11.1c-2.6-2.7-6-4.1-10.2-4.1s-7.6 1.4-10.2 4.1c-2.6 2.7-3.9 6.4-3.9 11.1s1.3 8.4 3.9 11.1c2.6 2.7 6 4.1 10.2 4.1z"/>
    <path class="amazon-text" d="M79.7 95.2c-32.4 0-58.7 26.3-58.7 58.7s26.3 58.7 58.7 58.7 58.7-26.3 58.7-58.7-26.3-58.7-58.7-58.7zm0 109.4c-28 0-50.7-22.7-50.7-50.7s22.7-50.7 50.7-50.7 50.7 22.7 50.7 50.7-22.7 50.7-50.7 50.7z"/>
    <path class="amazon-text" d="M79.7 125.2c-16.2 0-29.4 13.1-29.4 29.4s13.1 29.4 29.4 29.4 29.4-13.1 29.4-29.4-13.1-29.4-29.4-29.4zm0 50.8c-11.8 0-21.4-9.6-21.4-21.4s9.6-21.4 21.4-21.4 21.4 9.6 21.4 21.4-9.6 21.4-21.4 21.4z"/>
    <path class="amazon-text" d="M283.8 95.2h-8.2v53.6h8.2V95.2zm-4.1-8.7c-1.4 0-2.6-.5-3.6-1.4-.9-.9-1.4-2.1-1.4-3.6s.5-2.6 1.4-3.6c.9-.9 2.1-1.4 3.6-1.4s2.6.5 3.6 1.4c.9.9 1.4 2.1 1.4 3.6s-.5 2.6-1.4 3.6c-.9.9-2.1 1.4-3.6 1.4z"/>
    <path class="amazon-text" d="M37.7 95.2c-6.8 0-12.1 2.5-15.8 7.5-3.7 5-5.6 11.7-5.6 20.1 0 8.2 1.8 14.7 5.3 19.6 3.5 4.9 8.6 7.3 15.2 7.3 4.8 0 9.3-1.3 14.1-4.1v3.2c0 4.9-1.2 8.6-3.6 11.1-2.4 2.5-6 3.7-10.8 3.7-2.6 0-5.2-.3-7.8-1-2.6-.7-4.9-1.7-6.9-3.1l-2.8 6.1c2.3 1.6 5 2.8 8.1 3.7 3.1.9 6.4 1.3 9.8 1.3 7.1 0 12.5-1.9 16.2-5.7 3.7-3.8 5.6-9.3 5.6-16.6V95.2h-7.8v4.8c-3.5-3.7-8-5.6-13.6-5.6zm.9 45.4c-4.2 0-7.6-1.4-10.2-4.1-2.6-2.7-3.9-6.4-3.9-11.1s1.3-8.4 3.9-11.1c2.6-2.7 6-4.1 10.2-4.1s7.6 1.4 10.2 4.1c2.6 2.7 3.9 6.4 3.9 11.1s-1.3 8.4-3.9 11.1c-2.6 2.7-6 4.1-10.2 4.1z"/>
    <path class="amazon-text" d="M185.2 95.2c-6.8 0-12.1 2.5-15.8 7.5-3.7 5-5.6 11.7-5.6 20.1 0 8.2 1.8 14.7 5.3 19.6 3.5 4.9 8.6 7.3 15.2 7.3 4.8 0 9.3-1.3 14.1-4.1v3.2c0 4.9-1.2 8.6-3.6 11.1-2.4 2.5-6 3.7-10.8 3.7-2.6 0-5.2-.3-7.8-1-2.6-.7-4.9-1.7-6.9-3.1l-2.8 6.1c2.3 1.6 5 2.8 8.1 3.7 3.1.9 6.4 1.3 9.8 1.3 7.1 0 12.5-1.9 16.2-5.7 3.7-3.8 5.6-9.3 5.6-16.6V95.2h-7.8v4.8c-3.5-3.7-8-5.6-13.6-5.6zm.9 45.4c-4.2 0-7.6-1.4-10.2-4.1-2.6-2.7-3.9-6.4-3.9-11.1s1.3-8.4 3.9-11.1c2.6-2.7 6-4.1 10.2-4.1s7.6 1.4 10.2 4.1c2.6 2.7 3.9 6.4 3.9 11.1s-1.3 8.4-3.9 11.1c-2.6 2.7-6 4.1-10.2 4.1z"/>
    <path class="amazon-text" d="M242.1 95.2c-8.4 0-15.1 2.5-20.1 7.5-5 5-7.5 11.7-7.5 20.1s2.5 15.1 7.5 20.1c5 5 11.7 7.5 20.1 7.5 5.6 0 10.6-1.1 15-3.2 4.4-2.1 7.8-5.1 10.2-8.9l-6.1-4.1c-1.8 2.8-4.2 5-7.2 6.6-3 1.6-6.4 2.4-10.2 2.4-5.6 0-10.1-1.6-13.5-4.8-3.4-3.2-5.3-7.6-5.7-13.2h44.2c.1-.8.1-1.6.1-2.4 0-8.4-2.3-15.1-6.9-20.1-4.6-5-10.8-7.5-18.6-7.5zm-19.3 25.6c.4-5.6 2.3-10 5.7-13.2 3.4-3.2 7.9-4.8 13.5-4.8s10.1 1.6 13.5 4.8c3.4 3.2 5.3 7.6 5.7 13.2h-38.4z"/>
    <path class="amazon-text" d="M325.4 95.2c-5.6 0-10.1 1.9-13.6 5.6V95.2h-7.8v53.6h8.2v-30.4c0-5.6 1.3-9.9 3.9-12.9 2.6-3 6.2-4.5 10.8-4.5 4.2 0 7.4 1.3 9.6 3.9 2.2 2.6 3.3 6.4 3.3 11.4v32.5h8.2v-32.5c0-7.3-1.8-12.8-5.4-16.6-3.6-3.8-8.8-5.7-15.6-5.7z"/>
    <path class="amazon-smile" d="M527.2 162.4c-36.6 27-89.8 41.4-135.7 41.4-64.1 0-121.8-23.7-165.4-63.2-3.4-3.1-.4-7.3 3.7-4.9 47.1 27.4 105.4 43.9 165.7 43.9 40.6 0 85.3-8.4 126.4-25.8 6.2-2.6 11.4 4.1 5.3 8.6z"/>
    <path class="amazon-smile" d="M541.1 146.4c-4.7-6-30.9-2.8-42.6-1.4-3.6.4-4.1-2.7-.9-5 20.9-14.7 55.2-10.5 59.2-5.5 4 5-1.1 39.4-20.7 55.9-3 2.5-5.8 1.2-4.5-2.1 4.4-11.1 14.2-36 9.5-41.9z"/>
  </g>
</svg>