<svg xmlns="http://www.w3.org/2000/svg" viewBox="0 0 100 30">
  <path fill="#FF9900" d="M45.2 25.1c-3.4 2.5-8.3 3.7-12.6 3.7-5.9 0-10.5-2.2-14.2-6.7-3.7-4.5-5.6-10.5-5.6-18 0-7.6 1.6-13.7 4.9-18.2 3.3-4.5 8-6.7 14.1-6.7 5.1 0 9.2 1.7 12.4 5v-4.3h7.1v44.2c0 6.6-1.7 11.5-5 14.9-3.3 3.4-8.1 5.1-14.5 5.1-3.1 0-6-.4-8.8-1.2-2.8-.8-5.2-1.9-7.3-3.3l2.5-5.5c1.8 1.3 3.9 2.2 6.2 2.8 2.3.6 4.7.9 7 .9 4.3 0 7.6-1.1 9.8-3.3 2.2-2.3 3.3-5.6 3.3-10v-1.6zm-12.2-4.6c3.8 0 6.9-1.3 9.2-3.7 2.3-2.4 3.5-5.8 3.5-10s-1.1-7.6-3.5-10c-2.3-2.4-5.4-3.7-9.2-3.7s-6.9 1.3-9.2 3.7c-2.3 2.4-3.5 5.8-3.5 10s1.2 7.6 3.5 10c2.3 2.4 5.4 3.7 9.2 3.7z"/>
  <path fill="#232F3E" d="M69.4 21.8c0 2.5.6 4.4 1.9 5.7 1.3 1.3 3.1 1.9 5.4 1.9 1.4 0 2.8-.2 4.1-.7 1.3-.5 2.5-1.1 3.6-1.9v-8.5h-14.9v2.5z"/>
  <path fill="#232F3E" d="M95.7 0c-2.8 0-5.1 2.3-5.1 5.1v19.8c0 2.8 2.3 5.1 5.1 5.1s5.1-2.3 5.1-5.1V5.1C100.8 2.3 98.5 0 95.7 0z"/>
  <path fill="#232F3E" d="M0 29.9h8.2V0H0v29.9z"/>
  <path fill="#232F3E" d="M15.8 29.9h8.2V0h-8.2v29.9z"/>
</svg>
