<svg xmlns="http://www.w3.org/2000/svg" viewBox="0 0 100 30">
  <path fill="#000000" d="M50 7.5c-1.8-2.1-4.5-3.3-7.5-3.3-4.2 0-7.8 2.4-9.5 6.2-1.7 3.8-.8 8.4 2.3 11.4 2.1 2.2 4.8 3.4 7.7 3.4 3.9 0 6.9-2.4 8.7-6.2.9-2.1 1.3-4.3 1.3-6.5 0-1.8-.3-3.5-.8-5zm-5.5 15.5c-1.9 0-3.7-.8-5.1-2.2-1.4-1.4-2.2-3.2-2.2-5.1s.8-3.7 2.2-5.1c1.4-1.4 3.2-2.2 5.1-2.2s3.7.8 5.1 2.2c1.4 1.4 2.2 3.2 2.2 5.1s-.8 3.7-2.2 5.1c-1.4 1.4-3.2 2.2-5.1 2.2z"/>
  <path fill="#000000" d="M42.5 0c-2.5 0-4.9 1-6.7 2.8-1.8 1.8-2.8 4.2-2.8 6.7s1 4.9 2.8 6.7c1.8 1.8 4.2 2.8 6.7 2.8 2.5 0 4.9-1 6.7-2.8 1.8-1.8 2.8-4.2 2.8-6.7s-1-4.9-2.8-6.7c-1.8-1.8-4.2-2.8-6.7-2.8z"/>
</svg>
