<svg xmlns="http://www.w3.org/2000/svg" viewBox="0 0 814 1000" width="814" height="1000">
  <path d="M788.1 340.9c-5.8 4.5-108.2 62.2-108.2 190.5 0 148.4 130.3 200.9 134.2 202.2-.6 3.2-20.7 71.9-68.7 141.9-42.8 61.6-87.5 123.1-155.5 123.1s-85.5-39.5-164-39.5c-76.5 0-103.7 40.8-165.9 40.8s-105.6-57-155.5-127c-55.6-78.4-98.8-201.6-98.8-319.2 0-186.2 121.4-284.6 240.2-284.6 63.3 0 116.1 43.9 156.4 43.9 38.1 0 98.8-47.9 171.2-47.9 27.2 0 124.1 2.4 183.2 93.8zm-548.4-263.4c20.7-25.1 34.9-59.8 34.9-94.6 0-4.9-.5-9.7-1.4-14.6-33.2 1.4-73.4 22.1-97.3 50.7-19.5 22.5-36.9 58.1-36.9 93.1 0 5.4.9 10.8 1.4 12.5.8.1 2.3.3 3.7.3 29.6 0 66.9-19.8 95.6-47.4z" fill="#000"/>
</svg>