<svg xmlns="http://www.w3.org/2000/svg" viewBox="0 0 100 30">
  <path fill="#4285F4" d="M50 15.5c0-1.2-.1-2.4-.4-3.5H35.5v6.6h8.2c-.4 2.1-1.6 3.9-3.4 5.1v4.3h5.5c3.2-2.9 5-7.2 5-12.5z"/>
  <path fill="#34A853" d="M35.5 25.5c4.6 0 8.5-1.5 11.3-4.1l-5.5-4.3c-1.5 1-3.5 1.7-5.8 1.7-4.4 0-8.2-3-9.5-7h-5.7v4.4c2.3 4.6 7 7.9 13.2 7.9z"/>
  <path fill="#FBBC05" d="M26 18.1c-.2-1.1-.3-2.3-.3-3.5s.1-2.4.3-3.5v-4.4h-5.7c-1.2 2.4-1.9 5.1-1.9 8s.7 5.6 1.9 8l5.7-4.4z"/>
  <path fill="#EA4335" d="M35.5 11.9c2.5 0 4.7.9 6.4 2.5l4.8-4.8c-2.8-2.6-6.5-4.1-11.2-4.1-6.2 0-11.5 3.3-13.7 8.1l5.7 4.4c1.3-3.9 4.9-6.7 9-6.7z"/>
</svg>
