<svg xmlns="http://www.w3.org/2000/svg" viewBox="0 0 2000 800" width="2000" height="800">
  <defs>
    <style>
      .intel-blue { fill: #0071c5; }
      .intel-text { fill: #0071c5; }
    </style>
  </defs>
  <g>
    <!-- Intel logo mark -->
    <circle class="intel-blue" cx="100" cy="400" r="80"/>
    <rect class="intel-blue" x="60" y="360" width="80" height="80" rx="10"/>
    
    <!-- Intel text -->
    <g class="intel-text">
      <path d="M300 250h60v300h-60V250z"/>
      <path d="M420 250h60v50h-60v200c0 20 10 30 30 30h30v50h-40c-50 0-80-30-80-80V300h-30v-50h30v-50z"/>
      <path d="M580 300h60v20c20-15 45-25 75-25 60 0 100 40 100 100v155h-60V400c0-30-20-50-50-50s-50 20-50 50v150h-60V300z"/>
      <path d="M900 300h60v20c20-15 45-25 75-25 60 0 100 40 100 100v155h-60V400c0-30-20-50-50-50s-50 20-50 50v150h-60V300z"/>
      <path d="M1200 280c70 0 125 55 125 125s-55 125-125 125-125-55-125-125 55-125 125-125zm0 50c-40 0-70 30-70 75s30 75 70 75 70-30 70-75-30-75-70-75z"/>
      <path d="M1400 250h60v300h-60V250z"/>
      
      <!-- Registered trademark -->
      <circle class="intel-text" cx="1520" cy="280" r="25" fill="none" stroke="#0071c5" stroke-width="3"/>
      <path class="intel-text" d="M1510 270h8c4 0 6 2 6 5 0 2-1 4-3 4l4 6h-3l-3-5h-3v5h-3v-15zm3 2v6h4c2 0 3-1 3-3s-1-3-3-3h-4z"/>
    </g>
    
    <!-- Swoosh element -->
    <path class="intel-blue" d="M200 350c50-20 100-10 150 10s100 30 150 20c30-5 50-15 70-30l10 15c-25 20-50 35-85 40-60 10-120-10-170-30s-100-30-150-10l-10-15c20-10 35-5 35 0z"/>
  </g>
</svg>